HIERARCHY
ROOT joint_Root
{
	OFFSET 0.0 0.0 0.0
	CHANNELS 6 Xposition Yposition Zposition Zrotation Xrotation Yrotation 
	JOINT Hips
	{
		OFFSET 4.5925 91.4895 -427.239
		CHANNELS 6 Xposition Yposition Zposition Zrotation Xrotation Yrotation 
		JOINT Spine
		{
			OFFSET 15.7357 0.0 0.0
			CHANNELS 6 Xposition Yposition Zposition Zrotation Xrotation Yrotation 
			JOINT Chest
			{
				OFFSET 8.98455 -0.406207 0.0
				CHANNELS 6 Xposition Yposition Zposition Zrotation Xrotation Yrotation 
				JOINT Neck
				{
					OFFSET 16.3773 0.0 0.0
					CHANNELS 6 Xposition Yposition Zposition Zrotation Xrotation Yrotation 
					JOINT Head
					{
						OFFSET 6.45672 0.0 0.0
						CHANNELS 6 Xposition Yposition Zposition Zrotation Xrotation Yrotation 
						End Site
						{
							OFFSET 0.0 0.0 0.0
						}
					}
				}
				JOINT Shoulder_L
				{
					OFFSET 12.9942 -0.242716 4.98039
					CHANNELS 6 Xposition Yposition Zposition Zrotation Xrotation Yrotation 
					JOINT UpperArm_L
					{
						OFFSET 5.34809 0.0 0.0
						CHANNELS 6 Xposition Yposition Zposition Zrotation Xrotation Yrotation 
						JOINT LowerArm_L
						{
							OFFSET 24.3286 1.87007e-05 0.0
							CHANNELS 6 Xposition Yposition Zposition Zrotation Xrotation Yrotation 
							JOINT Hand_L
							{
								OFFSET 22.2916 0.0 0.0
								CHANNELS 6 Xposition Yposition Zposition Zrotation Xrotation Yrotation 
								End Site
								{
									OFFSET 0.0 0.0 0.0
								}
							}
						}
					}
				}
				JOINT Shoulder_R
				{
					OFFSET 12.9945 -0.242716 -4.98039
					CHANNELS 6 Xposition Yposition Zposition Zrotation Xrotation Yrotation 
					JOINT UpperArm_R
					{
						OFFSET -5.34813 0.0 0.0
						CHANNELS 6 Xposition Yposition Zposition Zrotation Xrotation Yrotation 
						JOINT LowerArm_R
						{
							OFFSET -24.3289 0.000322201 0.0
							CHANNELS 6 Xposition Yposition Zposition Zrotation Xrotation Yrotation 
							JOINT Hand_R
							{
								OFFSET -22.2915 -0.000108084 0.0
								CHANNELS 6 Xposition Yposition Zposition Zrotation Xrotation Yrotation 
								End Site
								{
									OFFSET 0.0 0.0 0.0
								}
							}
						}
					}
				}
			}
		}
		JOINT UpperLeg_L
		{
			OFFSET -2.19248 -6.46944 0.0
			CHANNELS 6 Xposition Yposition Zposition Zrotation Xrotation Yrotation 
			JOINT LowerLeg_L
			{
				OFFSET 39.0811 0.0 -1.23785e-05
				CHANNELS 6 Xposition Yposition Zposition Zrotation Xrotation Yrotation 
				JOINT Foot_L
				{
					OFFSET 40.9854 0.0 -1.26872e-05
					CHANNELS 6 Xposition Yposition Zposition Zrotation Xrotation Yrotation 
					JOINT Toes_L
					{
						OFFSET 11.7543 0.0 0.0
						CHANNELS 6 Xposition Yposition Zposition Zrotation Xrotation Yrotation 
						End Site
						{
							OFFSET 0.0 0.0 0.0
						}
					}
				}
			}
		}
		JOINT UpperLeg_R
		{
			OFFSET -2.19251 6.46944 0.0
			CHANNELS 6 Xposition Yposition Zposition Zrotation Xrotation Yrotation 
			JOINT LowerLeg_R
			{
				OFFSET -39.0811 -0.00228153 -0.0401928
				CHANNELS 6 Xposition Yposition Zposition Zrotation Xrotation Yrotation 
				JOINT Foot_R
				{
					OFFSET -40.9854 0.0 0.0
					CHANNELS 6 Xposition Yposition Zposition Zrotation Xrotation Yrotation 
					JOINT Toes_R
					{
						OFFSET -11.7543 0.0 0.0
						CHANNELS 6 Xposition Yposition Zposition Zrotation Xrotation Yrotation 
						End Site
						{
							OFFSET 0.0 0.0 0.0
						}
					}
				}
			}
		}
	}
}
MOTION
Frames:	9
Frame Time:	0.0333333
0.000000 0.000000 0.000000 0.000000 0.000000 -0.000000 -1.839980 87.239300 -520.218000 87.138000 -2.003030 -0.183532 15.735700 0.000005 -0.000001 75.075900 80.420100 -72.910100 8.984550 -0.406207 -0.000000 10.871900 -4.840100 4.792230 16.377300 -0.000001 -0.000001 1.373560 -0.193764 1.517150 6.456720 -0.000001 -0.000000 -6.385430 4.327980 1.491020 12.994200 -0.242716 4.980390 -90.185000 0.599637 -72.860900 5.348090 -0.000007 -0.000001 -64.801300 35.360300 -22.514100 24.328600 0.000019 0.000005 17.469800 4.182960 -76.964700 22.291600 -0.000001 0.000005 14.091800 5.566330 -9.473420 12.994500 -0.242716 -4.980390 87.642700 10.629800 -77.419100 -5.348130 -0.000001 -0.000004 -63.093500 28.814800 4.288560 -24.328900 0.000322 -0.000009 -16.415400 0.760556 -92.581400 -22.291500 -0.000108 -0.000004 18.579300 5.617130 -12.428900 -2.192480 -6.469440 -0.000000 -175.999000 -8.548110 -3.519000 39.081100 -0.000007 -0.000012 0.004151 -0.004324 43.818100 40.985400 -0.000006 -0.000013 -0.449816 -1.853640 -78.650200 11.754300 -0.000000 0.000003 -0.039427 -0.257831 -27.166500 -2.192510 6.469440 -0.000001 -171.867000 18.497200 154.686000 -39.081100 -0.002282 -0.040193 0.033273 -0.029044 45.939000 -40.985400 0.000008 0.000006 9.209910 -6.282320 -72.775400 -11.754300 -0.000006 -0.000006 -0.008054 -0.088474 -20.175900
0.000000 0.000000 0.000000 0.000000 0.000000 -0.000000 -2.394810 86.641900 -517.366000 87.376700 -3.417100 1.240320 15.735700 0.000005 -0.000001 82.755300 80.398900 -80.407000 8.984550 -0.406207 -0.000000 11.342300 -2.329310 4.926500 16.377300 -0.000001 -0.000001 1.540330 -0.558212 1.284000 6.456720 -0.000001 -0.000000 -7.074910 3.705550 0.513007 12.994200 -0.242716 4.980390 -90.341000 1.121490 -73.087000 5.348090 -0.000007 -0.000001 -66.013800 36.240300 -15.889300 24.328600 0.000019 0.000005 19.211600 9.750720 -64.086000 22.291600 -0.000001 0.000005 13.997800 5.592620 -10.913400 12.994500 -0.242716 -4.980390 87.684500 10.928600 -77.960500 -5.348130 -0.000001 -0.000004 -61.874300 32.396500 -9.243990 -24.328900 0.000322 -0.000009 -13.976500 2.021380 -98.070600 -22.291500 -0.000108 -0.000004 18.502200 5.611540 -12.059400 -2.192480 -6.469440 -0.000000 -175.198000 -9.496230 -9.234230 39.081100 -0.000007 -0.000012 0.037877 -0.023841 57.807600 40.985400 -0.000006 -0.000013 -0.565907 -0.703943 -67.639700 11.754300 -0.000000 0.000003 -0.141425 -0.537530 -39.258900 -2.192510 6.469440 -0.000001 -172.877000 16.188000 157.283000 -39.081100 -0.002282 -0.040193 0.041143 -0.033856 48.217600 -40.985400 0.000008 0.000006 8.950780 -7.288300 -75.084600 -11.754300 -0.000006 -0.000006 -0.004516 -0.056701 -18.879800
0.000000 0.000000 0.000000 0.000000 0.000000 -0.000000 -3.137620 86.260700 -514.821000 87.285800 -3.871640 2.298850 15.735700 0.000005 -0.000001 86.327100 80.205100 -83.902500 8.984550 -0.406207 -0.000000 11.814800 -1.158710 4.967830 16.377300 -0.000001 -0.000001 1.447640 -0.475069 1.888710 6.456720 -0.000001 -0.000000 -8.169300 3.502140 -0.651961 12.994200 -0.242716 4.980390 -90.514100 1.622520 -72.417400 5.348090 -0.000007 -0.000001 -63.015900 37.719900 -6.064140 24.328600 0.000019 0.000005 20.631600 9.230120 -66.937200 22.291600 -0.000001 0.000005 12.742000 5.600200 -11.353800 12.994500 -0.242716 -4.980390 88.065800 10.169400 -79.172700 -5.348130 -0.000001 -0.000004 -57.162500 36.138200 -27.240200 -24.328900 0.000322 -0.000009 -10.652600 2.696030 -104.052000 -22.291500 -0.000108 -0.000004 18.184800 5.605840 -11.698700 -2.192480 -6.469440 -0.000000 -174.373000 -8.163650 -17.462400 39.081100 -0.000007 -0.000012 0.053907 -0.018072 71.460600 40.985400 -0.000006 -0.000013 1.256960 -0.420209 -54.582500 11.754300 -0.000000 0.000003 -0.029643 -0.215836 -25.418300 -2.192510 6.469440 -0.000001 -173.226000 16.598900 160.237000 -39.081100 -0.002282 -0.040193 0.064353 -0.053352 48.873400 -40.985400 0.000008 0.000006 9.106140 -6.903060 -77.721100 -11.754300 -0.000006 -0.000006 -0.003571 -0.046904 -18.480800
0.000000 0.000000 0.000000 0.000000 0.000000 -0.000000 -3.589750 86.303000 -512.271000 87.732900 -5.524630 2.134770 15.735700 0.000005 -0.000001 93.622500 80.411100 -91.494700 8.984550 -0.406207 -0.000000 11.355200 1.268690 4.127740 16.377300 -0.000001 -0.000001 1.193480 -0.735763 2.347290 6.456720 -0.000001 -0.000000 -9.148330 2.017310 -0.912399 12.994200 -0.242716 4.980390 -90.269100 0.759125 -70.457900 5.348090 -0.000007 -0.000001 -58.995900 42.393500 1.515240 24.328600 0.000019 0.000005 16.415000 5.439430 -72.166400 22.291600 -0.000001 0.000005 12.085800 5.594100 -10.995900 12.994500 -0.242716 -4.980390 88.609400 8.006830 -80.115000 -5.348130 -0.000001 -0.000004 -51.030500 36.171200 -44.488300 -24.328900 0.000322 -0.000009 -6.273890 2.334450 -110.354000 -22.291500 -0.000108 -0.000004 17.752800 5.602490 -11.493800 -2.192480 -6.469440 -0.000000 -174.685000 -7.765540 -24.298400 39.081100 -0.000007 -0.000012 0.046907 -0.008509 79.708900 40.985400 -0.000006 -0.000013 2.461330 -0.851269 -52.889400 11.754300 -0.000000 0.000003 -0.003703 -0.048324 -18.542300 -2.192510 6.469440 -0.000001 -174.327000 17.472500 162.425000 -39.081100 -0.002282 -0.040193 0.075370 -0.063877 48.467400 -40.985400 0.000008 0.000006 9.255150 -4.476580 -79.475700 -11.754300 -0.000006 -0.000006 -0.002669 -0.036803 -18.069700
0.000000 0.000000 0.000000 0.000000 0.000000 -0.000000 -3.747360 87.281700 -509.297000 88.796600 -7.266990 2.337130 15.735700 0.000005 -0.000001 103.040000 80.431400 -101.558000 8.984550 -0.406207 -0.000000 10.845600 4.326210 2.552280 16.377300 -0.000001 -0.000001 1.254930 -1.233060 2.553870 6.456720 -0.000001 -0.000000 -9.364160 -0.290985 -1.131500 12.994200 -0.242716 4.980390 -89.541700 -1.180350 -68.796000 5.348090 -0.000007 -0.000001 -56.288600 46.020900 7.538820 24.328600 0.000019 0.000005 17.527800 3.949600 -77.696400 22.291600 -0.000001 0.000005 10.037900 5.584890 -10.475300 12.994500 -0.242716 -4.980390 89.230400 4.684520 -80.663300 -5.348130 -0.000001 -0.000004 -48.631300 33.694400 -54.857200 -24.328900 0.000322 -0.000009 -3.670500 1.777220 -115.800000 -22.291500 -0.000108 -0.000004 17.169900 5.596020 -11.107500 -2.192480 -6.469440 -0.000000 -176.091000 -8.106490 -27.839700 39.081100 -0.000007 -0.000012 0.032210 -0.004983 81.193100 40.985400 -0.000006 -0.000013 4.761470 -2.807100 -57.178600 11.754300 -0.000000 0.000003 -0.003482 -0.045947 -18.445500 -2.192510 6.469440 -0.000001 -176.810000 18.523600 166.739000 -39.081100 -0.002282 -0.040193 0.064413 -0.061219 44.967400 -40.985400 0.000008 0.000006 9.179610 -1.205540 -79.573800 -11.754300 -0.000006 -0.000006 -0.002281 -0.032185 -17.881900
0.000000 0.000000 0.000000 0.000000 0.000000 -0.000000 -3.846460 88.836100 -506.316000 90.214600 -7.649440 1.743280 15.735700 0.000005 -0.000001 109.427000 80.634700 -108.952000 8.984550 -0.406207 -0.000000 9.915050 6.200210 0.411618 16.377300 -0.000001 -0.000001 1.381990 -1.743010 2.465010 6.456720 -0.000001 -0.000000 -9.540890 -2.788050 -0.843376 12.994200 -0.242716 4.980390 -88.518800 -3.543040 -67.302200 5.348090 -0.000007 -0.000001 -53.930700 48.466200 12.358900 24.328600 0.000019 0.000005 16.687400 2.178640 -82.778200 22.291600 -0.000001 0.000005 8.887560 5.582440 -10.341700 12.994500 -0.242716 -4.980390 89.765300 1.497740 -81.096900 -5.348130 -0.000001 -0.000004 -48.163500 31.724900 -59.989100 -24.328900 0.000322 -0.000009 -4.426110 2.529680 -119.688000 -22.291500 -0.000108 -0.000004 16.915200 5.582210 -10.325900 -2.192480 -6.469440 -0.000000 -178.221000 -7.167110 -30.691100 39.081100 -0.000007 -0.000012 0.005665 -0.001298 77.025800 40.985400 -0.000006 -0.000013 5.712630 -5.922440 -60.009000 11.754300 -0.000000 0.000003 -0.004275 -0.054283 -18.785000 -2.192510 6.469440 -0.000001 -179.354000 19.611100 171.155000 -39.081100 -0.002282 -0.040193 0.043926 -0.050140 39.029100 -40.985400 0.000008 0.000006 8.599460 1.245870 -77.879800 -11.754300 -0.000006 -0.000006 -0.002139 -0.030444 -17.811100
0.000000 0.000000 0.000000 0.000000 0.000000 -0.000000 -3.845040 90.448300 -503.458000 92.042700 -7.591170 0.113654 15.735700 0.000005 -0.000001 114.612000 81.204900 -115.430000 8.984550 -0.406207 -0.000000 8.329380 7.288550 -2.168370 16.377300 -0.000001 -0.000001 1.610890 -2.229150 2.022500 6.456720 -0.000001 -0.000000 -9.595880 -5.358950 -0.202410 12.994200 -0.242716 4.980390 -87.099100 -6.404120 -65.570700 5.348090 -0.000007 -0.000001 -53.116200 49.703800 16.131200 24.328600 0.000019 0.000005 14.911200 0.722772 -87.288400 22.291600 -0.000001 0.000005 8.023830 5.575000 -9.944870 12.994500 -0.242716 -4.980390 90.168300 -1.097490 -81.292700 -5.348130 -0.000001 -0.000004 -48.221200 30.883800 -61.828900 -24.328900 0.000322 -0.000009 -4.663870 2.929450 -122.067000 -22.291500 -0.000108 -0.000004 15.971700 5.554450 -8.913170 -2.192480 -6.469440 -0.000000 179.300000 -5.586630 -33.053700 39.081100 -0.000007 -0.000012 -0.002760 0.001086 68.628100 40.985400 -0.000006 -0.000013 5.040050 -6.253780 -62.620500 11.754300 -0.000000 0.000003 -0.003156 -0.042364 -18.299700 -2.192510 6.469440 -0.000001 178.224000 20.075100 174.357000 -39.081100 -0.002282 -0.040193 0.024051 -0.032437 32.613500 -40.985400 0.000008 0.000006 8.057560 2.755520 -74.649700 -11.754300 -0.000006 -0.000006 -0.004682 -0.058359 -18.947400
0.000000 0.000000 0.000000 0.000000 0.000000 -0.000000 -3.879430 91.613300 -500.771000 93.117800 -7.475420 -1.788420 15.735700 0.000005 -0.000001 119.527000 81.714200 -121.333000 8.984550 -0.406207 -0.000000 6.837810 8.155400 -4.101070 16.377300 -0.000001 -0.000001 1.582980 -2.898160 0.967279 6.456720 -0.000001 -0.000000 -9.670250 -7.696600 0.682352 12.994200 -0.242716 4.980390 -85.587200 -9.132010 -64.071400 5.348090 -0.000007 -0.000001 -54.113200 48.910100 19.173200 24.328600 0.000019 0.000005 15.120800 -0.449185 -91.660500 22.291600 -0.000001 0.000005 7.116680 5.569180 -9.644300 12.994500 -0.242716 -4.980390 90.544500 -3.428870 -80.973000 -5.348130 -0.000001 -0.000004 -47.893600 30.804500 -62.199600 -24.328900 0.000322 -0.000009 -4.286840 2.752430 -122.644000 -22.291500 -0.000108 -0.000004 14.880700 5.534860 -8.016690 -2.192480 -6.469440 -0.000000 177.908000 -4.203810 -34.409100 39.081100 -0.000007 -0.000012 0.001654 -0.001049 57.514500 40.985400 -0.000006 -0.000013 4.156990 -5.140010 -64.781800 11.754300 -0.000000 0.000003 -0.002774 -0.038023 -18.123000 -2.192510 6.469440 -0.000001 176.284000 22.663800 176.049000 -39.081100 -0.002282 -0.040193 0.013656 -0.018973 28.615200 -40.985400 0.000008 0.000006 7.644050 6.419490 -71.337000 -11.754300 -0.000006 -0.000006 -0.011951 -0.117679 -21.370300
0.000000 0.000000 0.000000 0.000000 0.000000 -0.000000 -3.915650 92.206700 -498.130000 93.134500 -7.410610 -3.420440 15.735700 0.000005 -0.000001 123.543000 82.005300 -125.926000 8.984550 -0.406207 -0.000000 5.803930 8.854390 -5.216080 16.377300 -0.000001 -0.000001 1.415200 -3.427410 -0.181184 6.456720 -0.000001 -0.000000 -10.316700 -9.782130 1.561450 12.994200 -0.242716 4.980390 -84.197200 -11.337500 -62.664500 5.348090 -0.000007 -0.000001 -55.881900 46.033900 20.727300 24.328600 0.000019 0.000005 14.099200 -1.384450 -95.494700 22.291600 -0.000001 0.000005 5.405440 5.563980 -9.380960 12.994500 -0.242716 -4.980390 90.869500 -5.275680 -80.627600 -5.348130 -0.000001 -0.000004 -47.199100 31.481000 -61.603800 -24.328900 0.000322 -0.000009 -4.279850 2.633630 -121.554000 -22.291500 -0.000108 -0.000004 14.674000 5.522090 -7.449670 -2.192480 -6.469440 -0.000000 177.440000 -4.324680 -34.587700 39.081100 -0.000007 -0.000012 0.006314 -0.006377 44.699800 40.985400 -0.000006 -0.000013 3.009850 -3.851920 -65.739900 11.754300 -0.000000 0.000003 -0.003139 -0.042167 -18.291700 -2.192510 6.469440 -0.000001 174.968000 26.052300 177.216000 -39.081100 -0.002282 -0.040193 0.007460 -0.008237 26.748600 -40.985400 0.000008 0.000006 7.279690 11.408600 -68.933000 -11.754300 -0.000006 -0.000006 -0.021612 -0.176060 -23.769400
